<?xml version="1.0"?><svg width="640" height="480" xmlns="http://www.w3.org/2000/svg" xmlns:xlink="http://www.w3.org/1999/xlink">
 <!-- Created with SVG-edit - http://svg-edit.googlecode.com/ -->
 <g>
  <title>Layer 1</title>
  <defs>
   <symbol id="svg_23" height="347.94235" width="366.05777" y="0" x="0">
    <metadata id="svg_22">image/svg+xmlSimple TurntableAJ Ashtonrecord playerturntableLPvinylmusicDJstereo</metadata>

    <g transform="translate(-4.47112, -13.5288)" id="svg_2">
     <g id="svg_3" transform="translate(5.19753e-05, -97.4999)">
      <rect fill="#ffffff" stroke="#000000" stroke-width="3.75" stroke-linecap="round" stroke-linejoin="round" stroke-miterlimit="4" id="svg_21" y="112.90374" x="6.346063" ry="34.549595" rx="34.549595" height="344.19235" width="362.30777"/>
      <path fill="#000000" stroke-width="3.75" stroke-linecap="round" stroke-linejoin="round" stroke-miterlimit="4" id="svg_20" transform="matrix(0.966918, 0, 0, 1.03521, 4.0628e-06, -22.853)" d="m311.485809,301.602936c0.011566,75.621643 -65.618607,136.930847 -146.581558,136.930847c-80.962952,0 -146.593142,-61.309204 -146.581562,-136.930847c-0.01158,-75.621643 65.61861,-136.930832 146.581562,-136.930832c80.962952,0 146.593124,61.309189 146.581558,136.930832l0,0z"/>
      <path fill="#969696" stroke-width="3.75" stroke-linecap="round" stroke-linejoin="round" stroke-miterlimit="4" id="svg_19" transform="matrix(0.919778, 0, 0, 0.984743, 7.77366, -7.63111)" d="m142.207748,436.863007c-37.425499,-5.478699 -71.126808,-24.278015 -94.037979,-52.456451l116.734482,-82.803619l-22.696503,135.260071z"/>
      <path fill="#969696" stroke-width="3.75" stroke-linecap="round" stroke-linejoin="round" stroke-miterlimit="4" id="svg_18" transform="matrix(0.919778, 0, 0, 0.984743, 7.77366, -7.63111)" d="m175.744583,165.066589c36.096558,2.500229 69.926315,17.386353 94.974289,41.79158l-105.814621,94.744766l10.840332,-136.536346z"/>
      <path fill="#ffffff" stroke="#000000" stroke-width="13.953691" stroke-linecap="round" stroke-linejoin="round" stroke-miterlimit="4" id="svg_17" transform="matrix(0.346306, 0, 0, 0.370767, 102.341, 177.546)" d="m311.485809,301.602936c0.011566,75.621643 -65.618607,136.930847 -146.581558,136.930847c-80.962952,0 -146.593142,-61.309204 -146.581562,-136.930847c-0.01158,-75.621643 65.61861,-136.930832 146.581562,-136.930832c80.962952,0 146.593124,61.309189 146.581558,136.930832l0,0z"/>
      <path fill="#000000" stroke-width="3.75" stroke-linecap="round" stroke-linejoin="round" stroke-miterlimit="4" id="svg_16" transform="matrix(0.0502511, 0, 0, 0.0538004, 151.162, 273.144)" d="m311.485809,301.602936c0.011566,75.621643 -65.618607,136.930847 -146.581558,136.930847c-80.962952,0 -146.593142,-61.309204 -146.581562,-136.930847c-0.01158,-75.621643 65.61861,-136.930832 146.581562,-136.930832c80.962952,0 146.593124,61.309189 146.581558,136.930832l0,0z"/>
      <path fill="none" fill-opacity="0.75" fill-rule="evenodd" stroke="#000000" stroke-width="4.999999" stroke-miterlimit="4" id="svg_15" d="m126.515747,269.153534l29.370636,-19.820862"/>
      <path fill="none" fill-opacity="0.75" fill-rule="evenodd" stroke="#000000" stroke-width="4.999999" stroke-miterlimit="4" id="svg_14" d="m121.74086,293.749298l58.741302,-39.641754"/>
      <path fill="none" fill-opacity="0.75" fill-rule="evenodd" stroke="#000000" stroke-width="4.999999" stroke-miterlimit="4" id="svg_13" d="m156.247055,313.209503l29.370651,-19.820862"/>
      <path fill="#969696" fill-rule="evenodd" stroke="#ffffff" stroke-width="3.75" stroke-linecap="round" stroke-linejoin="round" stroke-miterlimit="4" id="svg_12" transform="matrix(0.99372, -0.111898, 0.111898, 0.99372, -35.4668, 21.59)" d="m333.25,184.9375l-82.21875,139.9375l-57,24.75l10.28125,21.78125l16.125,-8.34375l15.65625,26.3125l7.90625,-3.59375l-8.4375,-30.53125l28.9375,-14.96875l87.96875,-142.90625l-19.21875,-12.4375z"/>
      <g stroke="#000000" id="svg_9" transform="matrix(0.999938, -0.011145, 0.011145, 0.999938, -16.3287, -10.3322)">
       <path fill="#969696" fill-rule="evenodd" stroke-width="3.75" stroke-linecap="round" stroke-linejoin="round" stroke-miterlimit="4" id="svg_11" d="m332.807159,177.554306l-30.507935,66.186188l7.90921,32.755997l42.943359,-88.519836l-20.344635,-10.422348z"/>
       <path fill="#969696" fill-rule="evenodd" stroke-width="3.75" stroke-linecap="round" stroke-linejoin="round" stroke-miterlimit="4" id="svg_10" d="m305.13327,241.85788l-4.297272,10.303131l5.26297,28.894165l5.348022,-11.650452l-6.313721,-27.546844z"/>
      </g>
      <rect fill="#969696" stroke="#000000" stroke-width="3.750013" stroke-linecap="round" stroke-linejoin="round" stroke-miterlimit="4" id="svg_8" transform="matrix(0.41232, -0.911039, 0.911039, 0.41232, 0, 0)" y="330.94437" x="-36.627781" ry="12.00003" rx="12.00003" height="61.901619" width="47.505859"/>
      <path fill="#969696" stroke="#000000" stroke-width="3.588159" stroke-linecap="round" stroke-linejoin="round" stroke-miterlimit="4" id="svg_7" transform="matrix(1.0451, 0, 0, 1.04511, -2.85811, 5.32584)" d="m291.512299,400.185242c0.005249,8.351746 -6.763702,15.124969 -15.115448,15.124969c-8.351746,0 -15.120697,-6.773224 -15.115448,-15.124969c-0.005249,-8.351746 6.763702,-15.124969 15.115448,-15.124969c8.351746,0 15.120697,6.773224 15.115448,15.124969l0,0z"/>
      <path fill="#969696" stroke="#000000" stroke-width="3.672352" stroke-linecap="round" stroke-linejoin="round" stroke-miterlimit="4" id="svg_6" transform="matrix(1.04273, 0, 0, 1, 43.4055, 22.691)" d="m291.512299,400.185242c0.005249,8.351746 -6.763702,15.124969 -15.115448,15.124969c-8.351746,0 -15.120697,-6.773224 -15.115448,-15.124969c-0.005249,-8.351746 6.763702,-15.124969 15.115448,-15.124969c8.351746,0 15.120697,6.773224 15.115448,15.124969l0,0z"/>
      <rect fill="#969696" stroke="#000000" stroke-width="3.75" stroke-linecap="round" stroke-linejoin="round" stroke-miterlimit="4" id="svg_5" y="308.87747" x="328.92249" height="67.284477" width="14.539161"/>
      <path fill="#000000" stroke="#000000" stroke-width="4.651699" stroke-linecap="round" stroke-linejoin="round" stroke-miterlimit="4" id="svg_4" transform="matrix(0.823203, 0, 0, 0.789465, 109.164, 9.59709)" d="m291.512299,400.185242c0.005249,8.351746 -6.763702,15.124969 -15.115448,15.124969c-8.351746,0 -15.120697,-6.773224 -15.115448,-15.124969c-0.005249,-8.351746 6.763702,-15.124969 15.115448,-15.124969c8.351746,0 15.120697,6.773224 15.115448,15.124969l0,0z"/>
     </g>
    </g>
   </symbol>
  </defs>
  <use x="0" y="0" transform="rotate(-0.46492, 256.001, 238.54) matrix(1.39653, 0, 0, 1.36895, 0.394427, 0.383088)" xlink:href="#svg_23" id="svg_24"/>
 </g>
</svg>